<?xml version="1.0" encoding="UTF-8" standalone="no"?>
<!DOCTYPE svg PUBLIC "-//W3C//DTD SVG 1.1//EN" "http://www.w3.org/Graphics/SVG/1.1/DTD/svg11.dtd">
<svg width="100%" height="100%" viewBox="0 0 128 128" version="1.1" xmlns="http://www.w3.org/2000/svg" xmlns:xlink="http://www.w3.org/1999/xlink" xml:space="preserve" xmlns:serif="http://www.serif.com/" style="fill-rule:evenodd;clip-rule:evenodd;stroke-linejoin:round;stroke-miterlimit:2;">
    <g transform="matrix(1.00768,0,0,1.00768,-0.491397,-0.491397)">
        <g>
            <g transform="matrix(0.891981,0,0,0.914851,6.9132,5.44955)">
                <path d="M128,15.037L128,112.963C128,121.262 121.09,128 112.578,128L15.422,128C6.91,128 0,121.262 0,112.963L0,15.037C0,6.738 6.91,0 15.422,0L112.578,0C121.09,0 128,6.738 128,15.037Z" style="fill:rgb(210,86,41);"/>
            </g>
            <g transform="matrix(2.41631,0,0,2.47827,-52.5864,-78.5097)">
                <g transform="matrix(36.6949,0,0,36.6949,60.1388,70.6039)">
                </g>
                <text x="36.361px" y="70.604px" style="font-family:'HelveticaNeue', 'Helvetica Neue';font-size:36.695px;fill:white;">Y</text>
            </g>
        </g>
    </g>
</svg>
